<svg xmlns="http://www.w3.org/2000/svg" width="48" height="40" viewBox="0 0 48 40"><g><g><path fill="#fff" d="M20.962 10.388c-6.076.17-10.577 4.88-10.577 10.986 0 4.58 3.676 8.244 8.28 8.244h1.442c3.157 0 5.716-2.572 5.716-5.744 0-1.901-1.545-3.44-3.442-3.416a2.323 2.323 0 0 0-1.66.744l-.617.66c-.563.6-1.502.727-2.154.225a1.593 1.593 0 0 1-.204-2.34l.403-.44a5.877 5.877 0 0 1 4.328-1.902c3.525 0 6.384 2.872 6.384 6.416 0 4.888-3.943 8.85-8.806 8.85h-1.378c-6.288 0-11.386-5.123-11.386-11.443 0-7.677 6.192-13.9 13.83-13.9h19.588C44.736 7.328 48 4.048 48 0H21.201C9.492 0 0 9.54 0 21.31 0 31.631 8.326 40 18.596 40h1.548c8.673 0 15.704-7.066 15.704-15.784v-.807c0-2.269-.578-4.478-1.593-6.31h1.897c3.691 0 6.683-3.007 6.683-6.717z"/></g></g></svg>